<svg xmlns="http://www.w3.org/2000/svg" viewBox="0 0 100 100" version="1.1">
  <style>
    .r { fill: #fa3342 }
    .o { fill: #ef8318 }
    .y { fill: #fad032 }
    .g { fill: #82e65c }
    .b { fill: #33b3fa }
    .p { fill: #eb69eb }
    .v { fill: #5d33fa }
  </style>
  <circle cx="50" cy="50" r="50" fill="#202124"/>
  <path class="b" d="M50.6 94.9C50.6 93.5 51 92.1 51 90.7 51.1 89.2 50.6 87.8 50.6 86.4 50.5 86.1 50.2 85.8 49.9 85.8 49.5 85.8 49.2 86.1 49.2 86.4 49.2 87.9 49.6 89.2 49.6 90.7 49.7 92.1 49.2 93.5 49.2 94.9 49.2 95.3 49.5 95.6 49.9 95.6 50.3 95.6 50.6 95.3 50.6 94.9Z"/>
  <path class="y" d="M45 61.3C45.3 60.5 46.7 60.8 46.3 61.6 44.7 65.7 43 69.7 41.2 73.7 39.4 77.9 38 82.3 36.3 86.5 36 87.3 34.7 87 35 86.1 36.6 82.1 37.9 77.9 39.7 73.9 41.5 69.7 43.3 65.5 45 61.3Z"/>
  <path class="r" d="M57.6 85.9C57.7 86.8 56.4 87.1 56.2 86.3 55.8 84 55.3 81.8 55 79.6 54.8 78.7 56.2 78.3 56.3 79.2L57.6 85.9Z"/>
  <path class="g" d="M66.1 85.5C65.1 83.2 64 80.9 63 78.5 62.6 77.7 61.4 78.4 61.8 79.2 62.8 81.6 63.9 83.9 64.9 86.2 65.2 87 66.4 86.3 66.1 85.5Z"/>
  <path class="y" d="M51 84L51 78.7C51 76.9 50.5 75.1 50.5 73.3 50.5 71.6 50.9 70 51 68.4 51.1 66.4 51 64.5 51 62.6 51 62.2 50.7 61.9 50.3 61.9 49.9 61.9 49.6 62.2 49.6 62.6L49.6 67.9C49.6 69.7 49.2 71.5 49.2 73.3 49.1 75.1 49.6 76.6 49.7 78.3 49.8 80.2 49.7 82.1 49.7 84.1 49.8 84.3 50 84.5 50.3 84.5 50.6 84.5 50.9 84.3 51 84Z"/>
  <path class="g" d="M44.9 72.7C45.1 71.8 46.4 72.2 46.2 73 45.9 74.9 45.8 76.9 45.3 78.8 44.9 80.4 44.4 81.9 44.1 83.6 43.9 84.4 42.6 84.1 42.7 83.2 43.1 81.4 43.7 79.7 44.1 78 44.4 76.2 44.6 74.4 44.9 72.7Z"/>
  <path class="p" d="M40.4 58.3C38.5 60.2 36.7 62.1 35 64 33.2 65.9 31 67.8 29.1 69.8 27.1 71.7 25.2 73.7 23.1 75.6 22.1 76.4 21.2 77.4 20.3 78.4 19.5 79.4 18.9 80.5 18 81.4 17.4 82.1 18.3 83.1 19 82.4 19.7 81.6 20.4 80.8 21 79.9 21.8 78.8 22.8 77.7 23.8 76.8 25.9 74.8 28 72.8 30 70.8 31.9 68.9 33.9 67.2 35.7 65.3 37.4 63.3 39.4 61.3 41.3 59.3 41.5 59.1 41.5 58.9 41.5 58.8 41.5 58.4 41.2 58.1 40.8 58.1 40.6 58.1 40.5 58.1 40.3 58.3L40.4 58.3Z"/>
  <path class="b" d="M73.8 74.7C76.3 77.2 78.6 79.9 81.1 82.4 81.8 83 82.7 82.1 82.1 81.4 79.6 78.9 77.3 76.2 74.8 73.7 74.2 73 73.2 74 73.8 74.7L73.8 74.7Z"/>
  <path class="v" d="M30.2 80.7C29.7 81.5 28.5 80.8 29 80 31.1 77 33.4 74.1 35.5 71 36 70.3 37.1 71 36.7 71.7 34.6 74.7 32.3 77.7 30.2 80.7Z"/>
  <path class="r" d="M65.7 74.3C65.2 73.6 66.4 72.9 66.9 73.6 67.9 75 68.9 76.3 69.9 77.7 70.4 78.4 69.2 79.2 68.7 78.4 67.7 77 66.7 75.7 65.7 74.3Z"/>
  <path class="g" d="M56.3 76.9C55.9 74.8 55.6 72.7 55.2 70.5 55 69.7 53.7 70 53.8 70.9 54.3 73 54.6 75.1 55 77.3 55.2 78.1 56.5 77.8 56.3 76.9Z"/>
  <path class="y" d="M61.9 75.9C62.2 76.7 61 77.5 60.7 76.6 59.7 74.4 58.5 72.2 57.6 69.9 57.2 68.7 56.6 67.6 56.3 66.4 56 65.4 55.7 64.4 55.4 63.4 55 62.6 56.4 62.2 56.7 63.1 57.1 64.2 57.4 65.4 57.7 66.4 58.1 67.5 58.5 68.5 58.9 69.5 59.9 71.7 60.9 73.8 61.9 75.9Z"/>
  <path class="o" d="M66.1 67.4C67.9 69.1 69.8 70.8 71.5 72.7 72.1 73.3 73.1 72.4 72.5 71.7 70.7 69.8 68.9 68.1 67.1 66.4 66.9 66.2 66.7 66.1 66.6 66.1 66.2 66.1 65.9 66.5 65.9 66.9 65.9 67 65.9 67.2 66.1 67.4L66.1 67.4Z"/>
  <path class="p" d="M57.7 62C58.8 63.6 59.7 65.4 60.7 67 61.8 68.6 63 70.3 64.1 71.9 64.6 72.6 65.8 71.9 65.3 71.2 64.2 69.6 63 68 61.9 66.4 60.8 64.8 60 63 58.9 61.4 58.4 60.7 57.2 61.4 57.7 62.1L57.7 62Z"/>
  <path class="b" d="M77.9 69.5C78.7 70 79.5 70.5 80.2 71 81 71.4 81.7 70.3 80.9 69.8 80.2 69.3 79.4 68.8 78.6 68.3 77.9 67.9 77.2 69 77.9 69.5Z"/>
  <path class="v" d="M47.1 62.9C47.2 62.1 48.6 62.4 48.4 63.3 48 65.4 47.6 67.6 47.1 69.7 47 70.5 45.6 70.2 45.8 69.3L47.1 62.9Z"/>
  <path class="r" d="M25.2 66.1C24 66.9 22.8 67.8 21.6 68.6 20.9 69.1 21.6 70.3 22.3 69.8 23.5 69 24.7 68.1 25.9 67.3 26.6 66.8 25.9 65.6 25.2 66.1Z"/>
  <path class="r" d="M38.4 69.2C39.2 67.8 40 66.5 40.9 65.2 41.7 63.8 42.7 62.6 43.6 61.3 44.1 60.6 42.9 59.9 42.4 60.6 41.5 61.9 40.6 63.2 39.7 64.5 38.8 65.7 38 67.1 37.2 68.5 36.7 69.2 37.9 69.9 38.4 69.2Z"/>
  <path class="v" d="M54.2 68.4C53.7 66.2 53.3 64 52.9 61.8 52.7 60.9 51.4 61.3 51.5 62.1 52 64.3 52.4 66.6 52.8 68.8 53 69.6 54.3 69.3 54.2 68.4Z"/>
  <path class="o" d="M61.1 58.4C62.2 59.2 63.4 59.7 64.5 60.3 65.9 61.1 67.2 62 68.4 63 70.8 64.8 73.2 66.6 75.6 68.3 76.4 68.8 77.1 67.6 76.3 67.1 73.9 65.4 71.4 63.6 69.1 61.8 68 60.9 66.8 60.1 65.6 59.4 64.3 58.7 63 58.1 61.8 57.3 61.1 56.8 60.4 58 61.1 58.5L61.1 58.4Z"/>
  <path class="p" d="M29.6 57.9C30.4 57.6 31.1 58.8 30.3 59.1 27.8 60.3 25.2 61.5 22.7 62.4 19.8 63.5 17.2 64.6 14.4 65.8 13.6 66.2 12.9 65 13.7 64.6 16.3 63.5 18.7 62.4 21.5 61.4 24.2 60.4 26.9 59.2 29.6 57.9Z"/>
  <path class="b" d="M58.4 59.6C59.4 60.6 60.4 61.4 61.4 62.4 62.4 63.4 63.3 64.5 64.3 65.4 64.9 66 65.9 65.1 65.3 64.4 64.3 63.4 63.4 62.4 62.4 61.4 61.4 60.4 60.4 59.5 59.4 58.6 59.3 58.4 59.1 58.4 58.9 58.4 58.5 58.4 58.2 58.7 58.2 59.1 58.2 59.2 58.3 59.4 58.4 59.6L58.4 59.6Z"/>
  <path class="v" d="M40.2 55.8C38.1 57.3 36.4 58.9 34 60 31.6 61.1 29.4 62.5 27.3 64.1 26.6 64.6 27.3 65.8 28 65.3 30.1 63.7 32.3 62.3 34.7 61.2 37.1 60.1 38.8 58.5 40.9 57 41.6 56.4 40.9 55.3 40.2 55.8L40.2 55.8Z"/>
  <path class="r" d="M86.4 63.9C87.3 64.2 86.9 65.6 86.1 65.2 81.6 63.5 77.3 61.5 72.9 59.7 72.1 59.4 72.4 58.1 73.3 58.4 77.7 60.2 82 62.2 86.4 63.9Z"/>
  <path class="g" d="M70.5 57.6C67.8 56.6 65.2 55.4 62.4 54.3 61.6 53.9 61.3 55.3 62.1 55.6 64.8 56.7 67.4 57.9 70.2 58.9 71 59.2 71.4 57.9 70.5 57.6Z"/>
  <path class="y" d="M37.3 54.4C35.6 55.2 34.1 56.4 32.3 57.2 31.5 57.6 32.2 58.8 33 58.4 34.8 57.6 36.3 56.4 38 55.6 38.9 55.2 38.2 54 37.3 54.4Z"/>
  <path class="o" d="M22.4 54.9C22.8 55.3 22.9 56 22.2 56.1 21.6 56.2 20.9 56.4 20.3 56.5L16.3 57.5C15.7 57.6 15 57.8 14.4 57.9 13.5 58 13.1 56.7 14 56.5 16.7 56.2 19.2 55.2 21.9 54.8L22.4 54.9Z"/>
  <path class="p" d="M83.5 56.1C82 55.8 80.5 55.6 79.1 55.3 77.6 54.9 76.2 54.4 74.7 53.9 74.7 53.9 74.6 53.9 74.6 53.9 74.2 53.9 73.9 54.2 73.9 54.6 73.9 54.9 74.1 55.1 74.4 55.2 75.7 55.6 77 56.2 78.3 56.5 79.9 57 81.5 57.1 83.1 57.5 84 57.7 84.4 56.4 83.5 56.1Z"/>
  <path class="b" d="M25.2 55.7C24.3 55.9 23.9 54.6 24.8 54.4 27.2 53.9 29.7 53.6 32 53 34.2 52.5 36.4 51.9 38.6 51.4 39.5 51.2 39.9 52.5 39 52.7 36.6 53.2 34.1 53.9 31.9 54.5 29.7 55 27.4 55.3 25.2 55.7Z"/>
  <path class="v" d="M69.7 53.2C66.9 52.6 64.2 51.9 61.5 51.2 60.6 51 60.2 52.4 61.1 52.6 63.8 53.2 66.6 53.9 69.3 54.6 70.2 54.8 70.6 53.4 69.7 53.2Z"/>
  <path class="b" d="M83.1 50.4L89 50.4C91 50.4 92.9 50.8 94.9 50.9 95.3 50.8 95.5 50.5 95.5 50.2 95.5 49.8 95.3 49.5 94.9 49.5 93.1 49.5 91.3 49.1 89.4 49 87.3 48.9 85.2 49 83.1 49 82.7 49 82.4 49.3 82.4 49.7 82.4 50 82.7 50.4 83.1 50.4L83.1 50.4Z"/>
  <path class="g" d="M62.9 50.8C65.8 50.8 68.6 50.3 71.5 50.5 74.3 50.6 77.5 50.6 80.5 50.6 80.8 50.6 81.1 50.3 81.1 50 81.1 49.6 80.8 49.3 80.5 49.3 77.6 49.3 74.7 49.3 71.9 49.1 70.4 49 68.9 49 67.4 49.1 65.9 49.2 64.4 49.4 62.9 49.4 62.5 49.4 62.2 49.7 62.2 50.1 62.2 50.5 62.5 50.8 62.9 50.8L62.9 50.8Z"/>
  <path class="y" d="M5.1 50.7L20.9 50.7C21.3 50.7 21.6 50.4 21.6 50 21.6 49.7 21.3 49.3 20.9 49.3L5.1 49.3C4.7 49.4 4.5 49.7 4.5 50 4.5 50.4 4.7 50.7 5.1 50.7L5.1 50.7Z"/>
  <path class="p" d="M23.3 50.6C22.9 50.6 22.6 50.3 22.6 49.9 22.6 49.5 22.9 49.2 23.3 49.2 27.9 49.2 32.5 49.2 37.1 49.2 37.5 49.2 37.8 49.5 37.8 49.9 37.8 50.3 37.5 50.6 37.1 50.6 32.5 50.5 27.9 50.6 23.3 50.6Z"/>
  <path class="o" d="M38.3 47.2C39.1 47.4 38.8 48.8 37.9 48.6 35.5 48.1 32.9 47.4 30.7 46.9 28.4 46.4 26.1 46.1 23.8 45.7 22.9 45.5 23.3 44.2 24.1 44.4 26.6 44.8 29 45.1 31.4 45.7 33.7 46.2 36 46.8 38.3 47.2Z"/>
  <path class="p" d="M62.6 48.4C61.7 48.6 61.3 47.2 62.2 47.1 65.1 46.5 68.1 46.1 71 45.3 73.8 44.4 76.8 43.8 79.7 43.3 80.6 43.1 81 44.4 80.1 44.6 77.2 45.2 74.2 45.8 71.4 46.6 68.5 47.4 65.5 47.8 62.6 48.4Z"/>
  <path class="v" d="M39.5 45.3C37.5 44.4 35.3 43.8 33.3 42.9 31.2 42.1 29.3 40.9 27.2 40.1 26.4 39.8 26 41.1 26.8 41.4 28.9 42.3 30.8 43.4 32.9 44.3 35 45.1 37.1 45.8 39.2 46.6 40 46.9 40.4 45.6 39.5 45.3Z"/>
  <path class="v" d="M69.9 40.5C68.4 41.3 66.9 42.3 65.3 43 64.6 43.3 63.8 43.6 63.1 44 62.3 44.4 61.2 44.5 60.3 44.9 59.4 45.2 59.9 46.5 60.7 46.2 61.5 45.9 62.4 45.8 63.2 45.4L66.1 44.2C67.7 43.5 69.1 42.5 70.6 41.8 71.5 41.4 70.8 40.2 69.9 40.6L69.9 40.5Z"/>
  <path class="g" d="M19.8 43.4C20.6 43.6 20.3 44.9 19.4 44.8 18.5 44.6 17.3 44.4 16.5 44.3 15.6 44.1 15.9 42.7 16.8 42.9 17.8 43.1 18.8 43.3 19.8 43.4Z"/>
  <path class="y" d="M82.8 44.3C81.9 44.4 81.6 43.1 82.5 43 83.6 42.7 84.7 42.6 85.9 42.4 86.8 42.2 87.1 43.5 86.3 43.7 85.1 43.9 84 44.1 82.8 44.3Z"/>
  <path class="o" d="M72.1 34.1C70.1 35.5 68 36.9 65.9 38.2 65.1 38.8 64.2 39.3 63.3 40 62.3 40.8 61.4 41.7 60.3 42.4 59.6 42.9 60.3 44.1 61 43.6 62.9 42.2 64.6 40.7 66.6 39.4 68.6 38.1 70.7 36.7 72.7 35.3 73.4 34.8 72.7 33.6 72 34.1L72.1 34.1Z"/>
  <path class="p" d="M19.5 30.1C22.8 32.4 25.9 34.8 29.2 37.2 30.8 38.4 32.5 39.5 34.2 40.6 35.7 41.6 37.4 42.1 38.9 43.1 39 43.1 39.1 43.2 39.2 43.2 39.6 43.2 39.9 42.8 39.9 42.5 39.9 42.2 39.8 42 39.6 41.9 38.2 41 36.6 40.4 35.2 39.6 33.4 38.5 31.6 37.3 29.9 36 26.6 33.7 23.5 31.2 20.2 28.9 19.4 28.4 18.7 29.6 19.5 30.1Z"/>
  <path class="b" d="M81.1 17.5C79.1 19.5 77.1 21.4 75.2 23.4 74.2 24.4 73.1 25.4 72.2 26.5 71.3 27.6 70.6 28.8 69.6 29.8 68.7 30.6 67.7 31.5 66.6 32.2 65.5 33.2 64.5 34.2 63.6 35.4 61.7 37.6 59.8 39.6 57.8 41.6 57.6 41.7 57.5 41.9 57.5 42.1 57.5 42.5 57.9 42.8 58.3 42.8 58.4 42.8 58.6 42.7 58.8 42.6 60.7 40.7 62.6 38.7 64.4 36.6 65.3 35.4 66.3 34.4 67.4 33.4 68.4 32.5 69.6 31.8 70.6 30.8 71.5 29.8 72.3 28.8 73 27.8 73.9 26.6 74.9 25.5 76 24.5 78 22.5 80 20.5 82 18.5 82.1 18.4 82.2 18.2 82.2 18 82.2 17.6 81.9 17.3 81.5 17.3 81.3 17.3 81.1 17.4 81 17.5L81.1 17.5Z"/>
  <path class="v" d="M29.9 30.6C33.6 34.1 36.9 37.8 40.6 41.4 40.7 41.5 40.9 41.6 41.1 41.6 41.5 41.6 41.8 41.2 41.8 40.9 41.8 40.7 41.7 40.5 41.6 40.4 38 36.8 34.6 33.1 30.9 29.6 30.3 29 29.3 29.9 29.9 30.6L29.9 30.6Z"/>
  <path class="r" d="M85.5 33.8C84.6 34.3 83.7 34.9 82.9 35.6 81.6 36.2 80.3 36.6 78.9 36.9 76.5 37.5 74.5 38.9 72.3 40 71.5 40.4 72.2 41.6 73 41.2 75.4 40.1 77.5 38.7 80 38 81.1 37.8 82.2 37.4 83.2 37 84.2 36.4 85.1 35.5 86.2 35 87 34.6 86.3 33.4 85.5 33.8L85.5 33.8Z"/>
  <path class="g" d="M30.2 22.3C29.7 21.6 30.9 20.9 31.4 21.6 33.5 24.7 36.1 27.6 38.1 30.7 39.2 32.3 40 34 41 35.6 42.1 37.1 43.3 38.6 44.4 40.1 44.9 40.8 43.7 41.6 43.2 40.8 42.1 39.3 40.9 37.9 39.8 36.3 38.8 34.7 38 33 37 31.4 34.8 28.3 32.3 25.5 30.2 22.3Z"/>
  <path class="y" d="M25 39C25.8 39.3 25.5 40.7 24.6 40.3 21 38.9 17.2 37.7 13.6 36.2 12.8 35.9 13.1 34.6 13.9 34.9 17.6 36.4 21.4 37.5 25 39Z"/>
  <path class="o" d="M57.4 39.8C58.1 38.7 59 37.7 59.7 36.7 60.6 35.4 61.4 34.1 62.3 32.8 63 31.7 63.9 30.7 64.7 29.6 65.5 28.3 66.2 27 66.8 25.7 67.3 24.9 66.1 24.2 65.6 25 65 26.2 64.5 27.4 63.8 28.6 63 29.7 61.9 30.9 61.1 32.1 60.3 33.3 59.6 34.5 58.8 35.7 58 36.9 57 37.9 56.2 39.1 55.7 39.8 56.9 40.5 57.4 39.8Z"/>
  <path class="p" d="M51 38.6C51 35.2 50.6 31.7 50.6 28.3 50.6 26.6 50.9 24.9 50.9 23.2 50.9 21.5 50.5 19.8 50.4 18.1 50.4 17.7 50.1 17.4 49.7 17.4 49.4 17.4 49 17.7 49 18.1 49 19.8 49.5 21.5 49.5 23.2 49.5 24.9 49.2 26.6 49.2 28.3 49.2 31.7 49.6 35.2 49.6 38.6 49.6 38.9 49.9 39.3 50.3 39.3 50.7 39.3 51 38.9 51 38.6Z"/>
  <path class="b" d="M63.7 13.5C63.4 14.5 63.1 15.6 62.7 16.7 62.4 17.8 61.9 18.8 61.4 19.9 60.4 21.9 59.4 24 58.6 26.1 57.9 28.3 57 30.4 56.1 32.4 55.6 33.3 55.3 34.1 55 35.1 54.7 36.1 54.6 37.2 54.3 38.3 54 39.1 55.3 39.5 55.6 38.7 55.9 37.7 56.1 36.8 56.3 35.8 56.5 34.7 56.9 33.7 57.5 32.8 58.5 30.7 59.3 28.6 60 26.5 60.8 24.3 61.9 22.3 62.8 20.2 63.2 19.3 63.7 18.4 64 17.4 64.5 16.3 64.7 15.1 65.1 13.9 65.4 13.1 64.1 12.7 63.8 13.5L63.7 13.5Z"/>
  <path class="v" d="M45.2 37.8C44.5 36.1 44.1 34.4 43.4 32.7 42.7 31 41.7 29.3 41 27.6 40.6 26.8 39.5 27.5 39.8 28.3 40.5 29.9 41.3 31.3 42 32.8 42.8 34.6 43.2 36.4 43.9 38.2 44.2 39 45.5 38.6 45.2 37.8L45.2 37.8Z"/>
  <path class="r" d="M48.2 37.3C47.8 35.4 47.7 33.6 47.4 31.8 47.1 30 46.5 27.9 46.1 26 45.7 24 45.3 21.8 44.9 19.7 44.5 17.7 43.9 15.9 43.5 14 43.3 13.1 41.9 13.5 42.1 14.4 42.5 16.2 43.1 17.9 43.5 19.7 44 21.8 44.3 23.9 44.7 26 45.1 28 45.6 29.8 46 31.8 46.4 33.7 46.5 35.8 46.8 37.7 47 38.5 48.3 38.2 48.2 37.3L48.2 37.3Z"/>
  <path class="g" d="M53.6 26.7C53.8 25.8 55.1 26.2 55 27 54.7 28.7 54.8 30.5 54.4 32.2 54 33.6 53.4 35 53.1 36.4 52.9 37.3 51.6 36.9 51.8 36 52.2 34.4 52.9 33 53.2 31.4 53.4 29.9 53.4 28.3 53.6 26.7Z"/>
  <path class="y" d="M77.7 30.3C78.4 29.8 79.2 31 78.4 31.5 77.4 32.2 76.2 32.8 75.2 33.5 74.5 34 73.8 32.8 74.5 32.3 75.6 31.6 76.7 31 77.7 30.3Z"/>
  <path class="o" d="M17.6 18.9C18.2 19.5 19 20.1 19.7 20.6 20.7 21.3 21.6 22.1 22.4 23 24.1 24.9 25.8 26.8 27.6 28.6 28.2 29.2 29.2 28.3 28.6 27.6 26.9 25.9 25.3 24.1 23.7 22.3 23 21.5 22.2 20.7 21.3 20 20.3 19.4 19.4 18.7 18.6 18 17.9 17.4 16.9 18.4 17.6 19L17.6 18.9Z"/>
  <path class="p" d="M40.2 24.8C39.4 23 38.6 21.2 37.6 19.4 36.7 17.7 35.9 15.8 35.2 14 34.8 13.2 33.5 13.5 33.8 14.4 34.5 16.2 35.3 18 36.2 19.8 37.3 21.6 38.2 23.5 39 25.5 39.4 26.3 40.5 25.6 40.2 24.8L40.2 24.8Z"/>
  <path class="b" d="M68.6 23.1C68.1 23.8 67 23.1 67.4 22.4 68.2 21.3 69.1 20.3 69.8 19.2 70.3 18.5 71.5 19.2 71 19.9L68.6 23.1Z"/>
  <path class="v" d="M55.9 16.5C55.5 18.5 54.9 20.3 54.5 22.3 54.3 23.2 55.6 23.5 55.8 22.7 56.2 20.7 56.8 18.8 57.3 16.9 57.4 16 56.1 15.6 55.9 16.5Z"/>
  <path class="r" d="M68.6 23.1L68.6 23.1 68.6 23.1 68.6 23.1Z"/>
  <path class="g" d="M50.6 15.4C50.6 15.8 50.3 16.1 49.9 16.1 49.5 16.1 49.2 15.8 49.2 15.4 49.2 13.7 49.3 12 49.3 10.3 49.3 8.5 49 6.8 49 5.1 49 4.7 49.3 4.4 49.7 4.4 50.1 4.4 50.4 4.7 50.4 5.1 50.4 6.8 50.7 8.5 50.7 10.3 50.7 12 50.6 13.7 50.6 15.4L50.6 15.4Z"/>
</svg>
